# xmcd
#
# Track frame offsets:
#	150
#	7962
#	16801
#	29036
#	39578
#	55476
#	66036
#	81706
#	95321
#	105924
#	114687
#
# Disc length: 1705 seconds
#
# Revision: 1
# Processed by: cddbd v1.5.2PL0 Copyright (c) Steve Scherf et al.
# Submitted via: audiograbber 1.83.01
#
DISCID=8906a70b
DTITLE=Trisha Yearwood and Garth Brooks - Christmas Together
DYEAR=2016
DGENRE=Country Christmas
TTITLE0=I'm Beginning to See the Light
TTITLE1=Ugly Christmas Sweater
TTITLE2=Santa Baby
TTITLE3=Feliz Navidad
TTITLE4=What Are You Doing New Year's Eve?
TTITLE5=Marshmallow World
TTITLE6=Merry Christmas Means I Love You
TTITLE7=Hard Candy Christmas
TTITLE8=Baby, It's Cold Outside
TTITLE9=The Man with the Bag
TTITLE10=What I'm Thankful For (The Thanksgiving Song) (with James Taylor)
EXTD=
EXTT0=
EXTT1=
EXTT2=
EXTT3=
EXTT4=
EXTT5=
EXTT6=
EXTT7=
EXTT8=
EXTT9=
EXTT10=
PLAYORDER=
